<svg width="200" height="180" viewBox="0 0 220 200" fill="none" xmlns="http://www.w3.org/2000/svg">
<ellipse cx="110" cy="100" rx="110" ry="100" fill="#03DAC6"/>
<path d="M131.892 88.8238C129.352 83.1336 117 88.8238 117 88.8238C117 88.8238 124.245 78 131.154 78H138.868C141.346 78 143.027 80.912 143.027 80.912C143.666 81.6063 145.799 80.8842 145.174 79.3736C147.973 78.7274 149.075 78.8484 150.742 79.3736V88.8238H145.174L143.027 87.2304C139.846 86.852 138.841 87.14 138.868 88.8238V113.689C138.868 116.106 131.892 115.831 131.892 113.689V88.8238Z" fill="white"/>
<path d="M155.7 95.5H159.75L157.725 98.975H154.225L155.7 95.5ZM149.45 97.95H152.55L156.35 101.875H152.45L151 100.2L149.55 101.875H145.65L149.45 97.95ZM151.025 115.375C149.542 115.375 148.242 115.108 147.125 114.575C146.008 114.025 145.142 113.275 144.525 112.325C143.925 111.358 143.625 110.25 143.625 109C143.625 107.75 143.925 106.65 144.525 105.7C145.142 104.733 146.008 103.983 147.125 103.45C148.242 102.9 149.542 102.625 151.025 102.625C152.508 102.625 153.808 102.9 154.925 103.45C156.042 103.983 156.9 104.733 157.5 105.7C158.117 106.65 158.425 107.75 158.425 109C158.425 110.25 158.117 111.358 157.5 112.325C156.9 113.275 156.042 114.025 154.925 114.575C153.808 115.108 152.508 115.375 151.025 115.375ZM151.025 111.95C151.908 111.95 152.608 111.692 153.125 111.175C153.658 110.642 153.925 109.917 153.925 109C153.925 108.083 153.658 107.367 153.125 106.85C152.608 106.317 151.908 106.05 151.025 106.05C150.142 106.05 149.433 106.317 148.9 106.85C148.383 107.367 148.125 108.083 148.125 109C148.125 109.917 148.383 110.642 148.9 111.175C149.433 111.692 150.142 111.95 151.025 111.95ZM164.999 115.375C163.516 115.375 162.391 114.967 161.624 114.15C160.874 113.317 160.499 112.183 160.499 110.75V106.05H158.799V103H160.499V99.4H164.899V103H167.649V106.05H164.899V110.15C164.899 110.8 165.016 111.267 165.249 111.55C165.499 111.833 165.932 111.975 166.549 111.975C167.099 111.975 167.649 111.825 168.199 111.525V114.8C167.766 115 167.299 115.142 166.799 115.225C166.316 115.325 165.716 115.375 164.999 115.375Z" fill="white"/>
<path d="M81.0934 89.7574C79.5298 83.9707 66.4018 87.1669 66.4018 87.1669C66.4018 87.1669 75.3418 78.2603 82.1582 79.4622L89.7687 80.8041C92.2134 81.2352 93.3895 84.2629 93.3895 84.2629C93.9049 85.0262 96.1286 84.719 95.762 83.1912C98.6301 83.0711 99.6973 83.3765 101.255 84.1598L99.6896 93.0364L94.1968 92.0679L92.343 90.1978C89.2668 89.2889 88.2275 89.3846 87.976 90.971L83.8578 114.327C83.4574 116.598 76.6203 115.126 76.9752 113.113L81.0934 89.7574Z" fill="white"/>
<path d="M95.125 96.525H99.525V104.225C100.058 103.692 100.667 103.292 101.35 103.025C102.05 102.758 102.783 102.625 103.55 102.625C105.233 102.625 106.475 103.067 107.275 103.95C108.092 104.817 108.5 106 108.5 107.5V115H104.1V108.075C104.1 106.725 103.483 106.05 102.25 106.05C101.683 106.05 101.167 106.183 100.7 106.45C100.233 106.7 99.8417 107.092 99.525 107.625V115H95.125V96.525ZM117.162 115.375C115.678 115.375 114.378 115.108 113.262 114.575C112.145 114.025 111.278 113.275 110.662 112.325C110.062 111.358 109.762 110.25 109.762 109C109.762 107.75 110.062 106.65 110.662 105.7C111.278 104.733 112.145 103.983 113.262 103.45C114.378 102.9 115.678 102.625 117.162 102.625C119.095 102.625 120.72 103.083 122.037 104C122.87 103.983 123.453 103.808 123.787 103.475C124.12 103.142 124.287 102.617 124.287 101.9V101.05H127.837V102.175C127.837 103.358 127.52 104.383 126.887 105.25C126.253 106.1 125.362 106.658 124.212 106.925C124.445 107.592 124.562 108.283 124.562 109C124.562 110.25 124.253 111.358 123.637 112.325C123.037 113.275 122.178 114.025 121.062 114.575C119.945 115.108 118.645 115.375 117.162 115.375ZM117.162 111.95C118.045 111.95 118.745 111.692 119.262 111.175C119.795 110.642 120.062 109.917 120.062 109C120.062 108.083 119.795 107.367 119.262 106.85C118.745 106.317 118.045 106.05 117.162 106.05C116.278 106.05 115.57 106.317 115.037 106.85C114.52 107.367 114.262 108.083 114.262 109C114.262 109.917 114.52 110.642 115.037 111.175C115.57 111.692 116.278 111.95 117.162 111.95ZM117.437 120C116.903 120 116.445 119.808 116.062 119.425C115.678 119.058 115.487 118.608 115.487 118.075C115.487 117.542 115.678 117.083 116.062 116.7C116.445 116.333 116.903 116.15 117.437 116.15C117.97 116.15 118.42 116.333 118.787 116.7C119.153 117.083 119.337 117.542 119.337 118.075C119.337 118.608 119.153 119.058 118.787 119.425C118.42 119.808 117.97 120 117.437 120Z" fill="white"/>
<rect x="41" y="97.6372" width="21.1393" height="2.18103" fill="white"/>
<rect x="50.241" y="90.6579" width="11.8981" height="2.18103" fill="white"/>
<rect x="50.241" y="105.073" width="11.8981" height="2.18103" fill="white"/>
<rect x="41" y="83.2424" width="21.1393" height="2.18103" fill="white"/>
</svg>