<svg width="476" height="54" viewBox="0 0 476 54" fill="none" xmlns="http://www.w3.org/2000/svg">
<path d="M416.426 13.5542C412.958 7.03134 396.093 13.5542 396.093 13.5542C396.093 13.5542 405.985 1.14649 415.418 1.14649H425.951C429.334 1.14649 431.629 4.4846 431.629 4.4846C432.502 5.28054 435.414 4.4528 434.56 2.72107C438.381 1.98033 439.886 2.11906 442.162 2.72107V13.5542H434.56L431.629 11.7277C427.285 11.2939 425.913 11.624 425.951 13.5542V42.0578C425.951 44.8291 416.426 44.5142 416.426 42.0578V13.5542Z" fill="#03DAC6"/>
<path d="M444.292 20.1099H448.342L446.317 23.5849H442.817L444.292 20.1099ZM438.042 22.5599H441.142L444.942 26.4849H441.042L439.592 24.8099L438.142 26.4849H434.242L438.042 22.5599ZM439.617 39.9849C438.134 39.9849 436.834 39.7182 435.717 39.1849C434.6 38.6349 433.734 37.8849 433.117 36.9349C432.517 35.9682 432.217 34.8599 432.217 33.6099C432.217 32.3599 432.517 31.2599 433.117 30.3099C433.734 29.3432 434.6 28.5932 435.717 28.0599C436.834 27.5099 438.134 27.2349 439.617 27.2349C441.1 27.2349 442.4 27.5099 443.517 28.0599C444.634 28.5932 445.492 29.3432 446.092 30.3099C446.709 31.2599 447.017 32.3599 447.017 33.6099C447.017 34.8599 446.709 35.9682 446.092 36.9349C445.492 37.8849 444.634 38.6349 443.517 39.1849C442.4 39.7182 441.1 39.9849 439.617 39.9849ZM439.617 36.5599C440.5 36.5599 441.2 36.3015 441.717 35.7849C442.25 35.2515 442.517 34.5265 442.517 33.6099C442.517 32.6932 442.25 31.9765 441.717 31.4599C441.2 30.9265 440.5 30.6599 439.617 30.6599C438.734 30.6599 438.025 30.9265 437.492 31.4599C436.975 31.9765 436.717 32.6932 436.717 33.6099C436.717 34.5265 436.975 35.2515 437.492 35.7849C438.025 36.3015 438.734 36.5599 439.617 36.5599ZM453.591 39.9849C452.108 39.9849 450.983 39.5765 450.216 38.7599C449.466 37.9265 449.091 36.7932 449.091 35.3599V30.6599H447.391V27.6099H449.091V24.0099H453.491V27.6099H456.241V30.6599H453.491V34.7599C453.491 35.4099 453.608 35.8765 453.841 36.1599C454.091 36.4432 454.524 36.5849 455.141 36.5849C455.691 36.5849 456.241 36.4349 456.791 36.1349V39.4099C456.358 39.6099 455.891 39.7515 455.391 39.8349C454.908 39.9349 454.308 39.9849 453.591 39.9849Z" fill="#03DAC6"/>
<path d="M347.069 14.6243C344.934 7.99079 327.01 11.6547 327.01 11.6547C327.01 11.6547 339.216 1.44469 348.523 2.8225L358.914 4.36083C362.251 4.85497 363.857 8.32572 363.857 8.32572C364.561 9.20076 367.597 8.84856 367.096 7.09727C371.012 6.95958 372.469 7.30966 374.596 8.20753L372.459 18.3832L364.959 17.2729L362.428 15.1292C358.228 14.0873 356.809 14.1969 356.466 16.0155L350.843 42.7893C350.296 45.3923 340.962 43.7054 341.446 41.3981L347.069 14.6243Z" fill="#03DAC6"/>
<path d="M365.816 21.1349H370.216V28.8349C370.749 28.3015 371.357 27.9015 372.041 27.6349C372.741 27.3682 373.474 27.2349 374.241 27.2349C375.924 27.2349 377.166 27.6765 377.966 28.5599C378.782 29.4265 379.191 30.6099 379.191 32.1099V39.6099H374.791V32.6849C374.791 31.3349 374.174 30.6599 372.941 30.6599C372.374 30.6599 371.857 30.7932 371.391 31.0599C370.924 31.3099 370.532 31.7015 370.216 32.2349V39.6099H365.816V21.1349ZM387.852 39.9849C386.369 39.9849 385.069 39.7182 383.952 39.1849C382.836 38.6349 381.969 37.8849 381.352 36.9349C380.752 35.9682 380.452 34.8599 380.452 33.6099C380.452 32.3599 380.752 31.2599 381.352 30.3099C381.969 29.3432 382.836 28.5932 383.952 28.0599C385.069 27.5099 386.369 27.2349 387.852 27.2349C389.786 27.2349 391.411 27.6932 392.727 28.6099C393.561 28.5932 394.144 28.4182 394.477 28.0849C394.811 27.7515 394.977 27.2265 394.977 26.5099V25.6599H398.527V26.7849C398.527 27.9682 398.211 28.9932 397.577 29.8599C396.944 30.7099 396.052 31.2682 394.902 31.5349C395.136 32.2015 395.252 32.8932 395.252 33.6099C395.252 34.8599 394.944 35.9682 394.327 36.9349C393.727 37.8849 392.869 38.6349 391.752 39.1849C390.636 39.7182 389.336 39.9849 387.852 39.9849ZM387.852 36.5599C388.736 36.5599 389.436 36.3015 389.952 35.7849C390.486 35.2515 390.752 34.5265 390.752 33.6099C390.752 32.6932 390.486 31.9765 389.952 31.4599C389.436 30.9265 388.736 30.6599 387.852 30.6599C386.969 30.6599 386.261 30.9265 385.727 31.4599C385.211 31.9765 384.952 32.6932 384.952 33.6099C384.952 34.5265 385.211 35.2515 385.727 35.7849C386.261 36.3015 386.969 36.5599 387.852 36.5599ZM388.127 44.6099C387.594 44.6099 387.136 44.4182 386.752 44.0349C386.369 43.6682 386.177 43.2182 386.177 42.6849C386.177 42.1515 386.369 41.6932 386.752 41.3099C387.136 40.9432 387.594 40.7599 388.127 40.7599C388.661 40.7599 389.111 40.9432 389.477 41.3099C389.844 41.6932 390.027 42.1515 390.027 42.6849C390.027 43.2182 389.844 43.6682 389.477 44.0349C389.111 44.4182 388.661 44.6099 388.127 44.6099Z" fill="#03DAC6"/>
<path d="M1.68008 20.03H6.99008V28.13H15.2101V20.03H20.5201V41H15.2101V32.54H6.99008V41H1.68008V20.03ZM32.6033 41.45C29.4433 41.45 27.0633 40.61 25.4633 38.93C23.8633 37.23 23.0633 34.99 23.0633 32.21V20.03H28.6133V32.12C28.6133 33.54 28.9533 34.61 29.6333 35.33C30.3133 36.03 31.3033 36.38 32.6033 36.38C33.9033 36.38 34.8833 36.03 35.5433 35.33C36.2233 34.61 36.5633 33.54 36.5633 32.12V20.03H42.1433V22.04C43.0633 22.04 43.6833 21.86 44.0033 21.5C44.3233 21.14 44.4833 20.51 44.4833 19.61V18.59H48.9233V19.94C48.9233 21.72 48.3733 23.15 47.2733 24.23C46.1733 25.29 44.4633 25.82 42.1433 25.82V32.21C42.1433 34.99 41.3433 37.23 39.7433 38.93C38.1433 40.61 35.7633 41.45 32.6033 41.45ZM71.4554 41.45C69.1754 41.45 67.1654 41.01 65.4254 40.13C63.7054 39.25 62.3754 37.99 61.4354 36.35C60.4954 34.69 60.0254 32.75 60.0254 30.53C60.0254 28.31 60.4954 26.38 61.4354 24.74C62.3754 23.08 63.7054 21.81 65.4254 20.93C67.1654 20.03 69.1754 19.58 71.4554 19.58C72.9754 19.58 74.3154 19.73 75.4754 20.03C76.6554 20.31 77.7454 20.77 78.7454 21.41V26.45C77.8654 25.75 76.8654 25.25 75.7454 24.95C74.6454 24.63 73.3754 24.47 71.9354 24.47C70.6954 24.47 69.5854 24.72 68.6054 25.22C67.6454 25.7 66.8854 26.4 66.3254 27.32C65.7654 28.24 65.4854 29.31 65.4854 30.53C65.4854 32.43 66.0354 33.93 67.1354 35.03C68.2554 36.13 69.7654 36.68 71.6654 36.68C72.7254 36.68 73.6154 36.5 74.3354 36.14V32.78H71.1254V29.06H79.3754V39.5C77.2354 40.8 74.5954 41.45 71.4554 41.45ZM79.0548 13.4H84.6048L86.6748 18.74H81.7848L79.0548 13.4ZM81.4848 20.03H86.7948V41H81.4848V20.03ZM91.3728 39.14H96.8328L93.6828 45.47H88.8828L91.3728 39.14ZM119.971 41.45C117.691 41.45 115.681 41.01 113.941 40.13C112.221 39.25 110.891 37.99 109.951 36.35C109.011 34.69 108.541 32.75 108.541 30.53C108.541 28.31 109.011 26.38 109.951 24.74C110.891 23.08 112.221 21.81 113.941 20.93C115.681 20.03 117.691 19.58 119.971 19.58C121.471 19.58 122.811 19.73 123.991 20.03C125.171 20.33 126.261 20.8 127.261 21.44V26.48C126.381 25.78 125.381 25.27 124.261 24.95C123.161 24.63 121.891 24.47 120.451 24.47C118.391 24.47 116.801 25.01 115.681 26.09C114.561 27.15 114.001 28.63 114.001 30.53C114.001 32.43 114.561 33.92 115.681 35C116.821 36.08 118.411 36.62 120.451 36.62C121.891 36.62 123.181 36.45 124.321 36.11C125.461 35.77 126.521 35.23 127.501 34.49V39.5C125.601 40.8 123.091 41.45 119.971 41.45ZM128.679 11.09H133.539L135.309 15.26H131.109L128.679 11.09ZM137.319 14.03H141.039L145.599 18.74H140.919L139.179 16.73L137.439 18.74H132.759L137.319 14.03ZM136.419 20.03H141.639L150.009 41H144.579L142.899 36.68H135.159L133.479 41H128.019L136.419 20.03ZM141.579 32.6L139.029 25.55L136.449 32.6H141.579ZM152.12 20.03H157.37L165.08 32.51V20.03H170.39V41H165.17L157.43 28.49V41H152.12V20.03ZM194.121 41.45C191.841 41.45 189.831 41.01 188.091 40.13C186.371 39.25 185.041 37.99 184.101 36.35C183.161 34.69 182.691 32.75 182.691 30.53C182.691 28.31 183.161 26.38 184.101 24.74C185.041 23.08 186.371 21.81 188.091 20.93C189.831 20.03 191.841 19.58 194.121 19.58C195.641 19.58 196.981 19.73 198.141 20.03C199.321 20.31 200.411 20.77 201.411 21.41V26.45C200.531 25.75 199.531 25.25 198.411 24.95C197.311 24.63 196.041 24.47 194.601 24.47C193.361 24.47 192.251 24.72 191.271 25.22C190.311 25.7 189.551 26.4 188.991 27.32C188.431 28.24 188.151 29.31 188.151 30.53C188.151 32.43 188.701 33.93 189.801 35.03C190.921 36.13 192.431 36.68 194.331 36.68C195.391 36.68 196.281 36.5 197.001 36.14V32.78H193.791V29.06H202.041V39.5C199.901 40.8 197.261 41.45 194.121 41.45ZM201.721 13.4H207.271L209.341 18.74H204.451L201.721 13.4ZM204.151 20.03H209.461V41H204.151V20.03ZM223.574 32.51H222.044V28.55H223.574V20.03H231.104C233.404 20.03 235.414 20.45 237.134 21.29C238.854 22.13 240.174 23.34 241.094 24.92C242.034 26.48 242.504 28.31 242.504 30.41C242.504 33.89 241.484 36.53 239.444 38.33C237.404 40.11 234.574 41 230.954 41H223.574V32.51ZM231.404 36.53C233.224 36.53 234.614 35.98 235.574 34.88C236.554 33.78 237.044 32.29 237.044 30.41C237.044 28.69 236.554 27.28 235.574 26.18C234.614 25.06 233.284 24.5 231.584 24.5H228.884V28.55H233.174V32.51H228.884V36.53H231.404ZM246.967 14.9C247.667 14.06 248.717 13.64 250.117 13.64C250.557 13.64 250.997 13.7 251.437 13.82C251.877 13.94 252.447 14.13 253.147 14.39C253.747 14.63 254.267 14.82 254.707 14.96C255.147 15.08 255.587 15.14 256.027 15.14C257.287 15.14 258.337 14.64 259.177 13.64V17.48C258.497 18.3 257.447 18.71 256.027 18.71C255.527 18.71 255.037 18.65 254.557 18.53C254.077 18.39 253.517 18.19 252.877 17.93C252.237 17.69 251.717 17.51 251.317 17.39C250.937 17.27 250.537 17.21 250.117 17.21C248.877 17.21 247.827 17.72 246.967 18.74V14.9ZM250.447 20.03H255.667L264.037 41H258.607L256.927 36.68H249.187L247.507 41H242.047L250.447 20.03ZM255.607 32.6L253.057 25.55L250.477 32.6H255.607ZM287.168 41.45C284.888 41.45 282.878 41.01 281.138 40.13C279.418 39.25 278.088 37.99 277.148 36.35C276.208 34.69 275.738 32.75 275.738 30.53C275.738 28.31 276.208 26.38 277.148 24.74C278.088 23.08 279.418 21.81 281.138 20.93C282.878 20.03 284.888 19.58 287.168 19.58C288.668 19.58 290.008 19.73 291.188 20.03C292.368 20.33 293.458 20.8 294.458 21.44V26.48C293.578 25.78 292.578 25.27 291.458 24.95C290.358 24.63 289.088 24.47 287.648 24.47C285.588 24.47 283.998 25.01 282.878 26.09C281.758 27.15 281.198 28.63 281.198 30.53C281.198 32.43 281.758 33.92 282.878 35C284.018 36.08 285.608 36.62 287.648 36.62C289.088 36.62 290.378 36.45 291.518 36.11C292.658 35.77 293.718 35.23 294.698 34.49V39.5C292.798 40.8 290.288 41.45 287.168 41.45ZM306.256 13.4H311.806L309.076 18.74H304.186L306.256 13.4ZM306.706 41.45C304.586 41.45 302.666 40.99 300.946 40.07C299.246 39.15 297.896 37.87 296.896 36.23C295.916 34.57 295.426 32.67 295.426 30.53C295.426 28.39 295.916 26.49 296.896 24.83C297.896 23.17 299.246 21.88 300.946 20.96C302.666 20.04 304.586 19.58 306.706 19.58C308.806 19.58 310.706 20.04 312.406 20.96C314.126 21.88 315.476 23.17 316.456 24.83C317.436 26.49 317.926 28.39 317.926 30.53C317.926 32.67 317.436 34.57 316.456 36.23C315.476 37.87 314.126 39.15 312.406 40.07C310.706 40.99 308.806 41.45 306.706 41.45ZM306.706 36.47C307.766 36.47 308.736 36.23 309.616 35.75C310.496 35.27 311.196 34.58 311.716 33.68C312.236 32.78 312.496 31.73 312.496 30.53C312.496 29.33 312.236 28.29 311.716 27.41C311.216 26.51 310.526 25.82 309.646 25.34C308.766 24.84 307.786 24.59 306.706 24.59C305.606 24.59 304.616 24.84 303.736 25.34C302.856 25.82 302.156 26.51 301.636 27.41C301.136 28.29 300.886 29.33 300.886 30.53C300.886 31.73 301.136 32.78 301.636 33.68C302.156 34.58 302.856 35.27 303.736 35.75C304.636 36.23 305.626 36.47 306.706 36.47Z" fill="#03DAC6"/>
<path d="M469.37 20.03H474.65V34.1H469.37V20.03ZM472.01 41.45C471.21 41.45 470.54 41.19 470 40.67C469.46 40.13 469.19 39.47 469.19 38.69C469.19 37.89 469.46 37.23 470 36.71C470.54 36.19 471.21 35.93 472.01 35.93C472.79 35.93 473.45 36.2 473.99 36.74C474.53 37.26 474.8 37.91 474.8 38.69C474.8 39.47 474.53 40.13 473.99 40.67C473.45 41.19 472.79 41.45 472.01 41.45Z" fill="#03DAC6"/>
</svg>
