<svg width="400" height="31" viewBox="0 0 400 31" fill="none" xmlns="http://www.w3.org/2000/svg">
<path d="M41.26 8.02H47.68C48.6667 8.02 49.4467 8.26667 50.02 8.76C50.6067 9.25333 50.9 9.93333 50.9 10.8C50.9 11.0933 50.86 11.42 50.78 11.78C50.62 12.4733 50.32 13.0867 49.88 13.62C49.4533 14.14 48.9467 14.5267 48.36 14.78C48.8933 14.9533 49.3 15.2467 49.58 15.66C49.8733 16.0733 50.02 16.5733 50.02 17.16C50.02 17.4133 49.9867 17.7067 49.92 18.04C49.6533 19.2933 49.0933 20.2667 48.24 20.96C47.3867 21.6533 46.3267 22 45.06 22H38.3L41.26 8.02ZM46.14 14.02C46.7933 14.02 47.3467 13.84 47.8 13.48C48.2533 13.12 48.5533 12.5867 48.7 11.88C48.7667 11.5467 48.8 11.2867 48.8 11.1C48.8 10.5933 48.64 10.2333 48.32 10.02C48.0133 9.79333 47.5467 9.68 46.92 9.68H42.94L42.02 14.02H46.14ZM44.94 20.34C45.8067 20.34 46.46 20.1733 46.9 19.84C47.3533 19.5067 47.6733 18.9067 47.86 18.04C47.9267 17.7067 47.96 17.44 47.96 17.24C47.96 16.6933 47.78 16.3 47.42 16.06C47.06 15.82 46.5 15.7 45.74 15.7H41.66L40.68 20.34H44.94ZM52.7283 7.88H54.8683L55.5083 11.32H53.6483L52.7283 7.88ZM53.3283 12.4H55.3683L53.3283 22H51.2883L53.3283 12.4ZM57.9767 12.4H59.9367L59.6367 13.78C60.2234 13.2067 60.8701 12.7867 61.5767 12.52C62.2967 12.24 63.0167 12.1 63.7367 12.1C64.7501 12.1 65.5167 12.36 66.0367 12.88C66.5701 13.4 66.8367 14.0867 66.8367 14.94C66.8367 15.1933 66.8034 15.5 66.7367 15.86L65.4367 22H63.4167L64.6767 16.06C64.7567 15.6733 64.7967 15.34 64.7967 15.06C64.7967 14.5933 64.6501 14.2533 64.3567 14.04C64.0767 13.8267 63.5967 13.72 62.9167 13.72C62.2767 13.72 61.6501 13.8733 61.0367 14.18C60.4234 14.4733 59.8501 14.9267 59.3167 15.54L57.9567 22H55.9367L57.9767 12.4ZM71.0689 7.22H73.0889L71.6889 13.72C72.8356 12.64 74.1822 12.1 75.7289 12.1C76.7422 12.1 77.5089 12.3533 78.0289 12.86C78.5622 13.3533 78.8289 14.0267 78.8289 14.88C78.8289 15.2533 78.7956 15.58 78.7289 15.86L77.4289 22H75.4089L76.6689 16.06C76.7356 15.78 76.7689 15.4733 76.7689 15.14C76.7689 14.66 76.6222 14.3067 76.3289 14.08C76.0489 13.84 75.5756 13.72 74.9089 13.72C74.2689 13.72 73.6422 13.8733 73.0289 14.18C72.4156 14.4733 71.8422 14.9267 71.3089 15.54L69.9489 22H67.9289L71.0689 7.22ZM90.4634 7.22H92.4834L89.3434 22H87.3234L90.4634 7.22ZM95.6923 22.3C94.679 22.3 93.8923 22.0333 93.3323 21.5C92.7723 20.9533 92.4923 20.2467 92.4923 19.38C92.4923 19.14 92.5257 18.84 92.5923 18.48L93.8923 12.4H95.9123L94.6323 18.4C94.5657 18.7333 94.5323 19.0067 94.5323 19.22C94.5323 19.7267 94.679 20.1 94.9723 20.34C95.279 20.58 95.7657 20.7 96.4323 20.7C97.779 20.7 98.9657 20.0933 99.9923 18.88L101.372 12.4H103.392L101.352 22H99.3923L99.6723 20.64C98.5657 21.7467 97.239 22.3 95.6923 22.3ZM111.852 8H113.632L115.752 11.32H113.772L112.552 9.18L110.412 11.32H108.312L111.852 8ZM108.212 22.3C107.438 22.3 106.738 22.14 106.112 21.82C105.498 21.5 105.012 21.0467 104.652 20.46C104.305 19.8733 104.132 19.1867 104.132 18.4C104.132 18.0267 104.172 17.6333 104.252 17.22C104.465 16.22 104.872 15.3333 105.472 14.56C106.072 13.7867 106.798 13.1867 107.652 12.76C108.518 12.32 109.432 12.1 110.392 12.1C112.112 12.1 113.312 12.6267 113.992 13.68L114.272 12.4H116.292L114.252 22H112.292L112.572 20.6C111.918 21.1867 111.245 21.62 110.552 21.9C109.858 22.1667 109.078 22.3 108.212 22.3ZM109.012 20.7C109.838 20.7 110.605 20.4867 111.312 20.06C112.032 19.62 112.598 19.0333 113.012 18.3L113.472 16.14C113.405 15.4067 113.098 14.82 112.552 14.38C112.005 13.94 111.318 13.72 110.492 13.72C109.505 13.72 108.612 14.0467 107.812 14.7C107.025 15.34 106.518 16.18 106.292 17.22C106.198 17.6867 106.152 18.0667 106.152 18.36C106.152 19.92 107.105 20.7 109.012 20.7ZM109.032 25.32C108.752 25.32 108.525 25.2333 108.352 25.06C108.178 24.8867 108.092 24.6667 108.092 24.4C108.092 24.04 108.238 23.7133 108.532 23.42C108.838 23.14 109.172 23 109.532 23C109.785 23 109.998 23.0867 110.172 23.26C110.345 23.4467 110.432 23.6733 110.432 23.94C110.432 24.3 110.285 24.62 109.992 24.9C109.698 25.18 109.378 25.32 109.032 25.32ZM118.797 12.4H120.757L120.457 13.78C121.044 13.2067 121.69 12.7867 122.397 12.52C123.117 12.24 123.837 12.1 124.557 12.1C125.57 12.1 126.337 12.36 126.857 12.88C127.39 13.4 127.657 14.0867 127.657 14.94C127.657 15.1933 127.624 15.5 127.557 15.86L126.257 22H124.237L125.497 16.06C125.577 15.6733 125.617 15.34 125.617 15.06C125.617 14.5933 125.47 14.2533 125.177 14.04C124.897 13.8267 124.417 13.72 123.737 13.72C123.097 13.72 122.47 13.8733 121.857 14.18C121.244 14.4733 120.67 14.9267 120.137 15.54L118.777 22H116.757L118.797 12.4Z" fill="#5E5E5E"/>
<line x1="135" y1="17.5" x2="790" y2="17.5" stroke="black"/>
<line y1="17.5" x2="30" y2="17.5" stroke="black"/>
</svg>
