<svg width="20" height="20" viewBox="0 0 20 20" fill="none" xmlns="http://www.w3.org/2000/svg">
<path d="M19.0817 2.65L17.3497 0.918001C16.8717 0.440001 16.2437 0.200001 15.6177 0.200001C14.9917 0.200001 14.3637 0.440001 13.8857 0.918001L3.36771 11.436C2.88971 11.914 1.42571 13.766 1.42571 14.392L0.199707 19.8L5.60771 18.576C5.60771 18.576 8.08571 17.112 8.56571 16.634L19.0837 6.116C20.0397 5.158 20.0397 3.606 19.0817 2.65ZM1.82371 18.176L2.61971 14.662C2.63171 14.612 2.63971 14.56 2.64371 14.51C2.64571 14.502 2.65371 14.492 2.65571 14.484L5.42571 17.254C5.33371 17.31 5.23971 17.366 5.14771 17.422L1.82371 18.176ZM7.69971 15.764C7.56171 15.896 7.08171 16.22 6.49571 16.594L3.32171 13.418C3.64771 12.972 4.00971 12.524 4.23171 12.3L12.1517 4.38L15.6157 7.844L7.69971 15.764ZM18.2157 5.248L16.4837 6.98L13.0197 3.516L14.7517 1.784C14.9817 1.552 15.2897 1.426 15.6177 1.426C15.9457 1.426 16.2537 1.554 16.4837 1.784L18.2157 3.516C18.4477 3.746 18.5737 4.054 18.5737 4.382C18.5737 4.708 18.4477 5.018 18.2157 5.248Z" fill="black"/>
</svg>
