<svg width="134" height="43" viewBox="0 0 134 43" fill="none" xmlns="http://www.w3.org/2000/svg">
<path d="M90.8919 11.8238C88.3517 6.13359 76 11.8238 76 11.8238C76 11.8238 83.2447 1 90.154 1H97.8683C100.346 1.00001 102.027 3.91198 102.027 3.91198C102.666 4.6063 104.799 3.88423 104.174 2.37357C106.973 1.7274 108.075 1.84841 109.742 2.37357V11.8238H104.174L102.027 10.2304C98.8456 9.85203 97.8406 10.14 97.8683 11.8238V36.6886C97.8683 39.1061 90.8919 38.8314 90.8919 36.6886V11.8238Z" fill="white"/>
<path d="M114.7 18.5H118.75L116.725 21.975H113.225L114.7 18.5ZM108.45 20.95H111.55L115.35 24.875H111.45L110 23.2L108.55 24.875H104.65L108.45 20.95ZM110.025 38.375C108.542 38.375 107.242 38.1083 106.125 37.575C105.008 37.025 104.142 36.275 103.525 35.325C102.925 34.3583 102.625 33.25 102.625 32C102.625 30.75 102.925 29.65 103.525 28.7C104.142 27.7333 105.008 26.9833 106.125 26.45C107.242 25.9 108.542 25.625 110.025 25.625C111.508 25.625 112.808 25.9 113.925 26.45C115.042 26.9833 115.9 27.7333 116.5 28.7C117.117 29.65 117.425 30.75 117.425 32C117.425 33.25 117.117 34.3583 116.5 35.325C115.9 36.275 115.042 37.025 113.925 37.575C112.808 38.1083 111.508 38.375 110.025 38.375ZM110.025 34.95C110.908 34.95 111.608 34.6917 112.125 34.175C112.658 33.6417 112.925 32.9167 112.925 32C112.925 31.0833 112.658 30.3667 112.125 29.85C111.608 29.3167 110.908 29.05 110.025 29.05C109.142 29.05 108.433 29.3167 107.9 29.85C107.383 30.3667 107.125 31.0833 107.125 32C107.125 32.9167 107.383 33.6417 107.9 34.175C108.433 34.6917 109.142 34.95 110.025 34.95ZM123.999 38.375C122.515 38.375 121.39 37.9667 120.624 37.15C119.874 36.3167 119.499 35.1833 119.499 33.75V29.05H117.799V26H119.499V22.4H123.899V26H126.649V29.05H123.899V33.15C123.899 33.8 124.015 34.2667 124.249 34.55C124.499 34.8333 124.932 34.975 125.549 34.975C126.099 34.975 126.649 34.825 127.199 34.525V37.8C126.765 38 126.299 38.1417 125.799 38.225C125.315 38.325 124.715 38.375 123.999 38.375Z" fill="white"/>
<path d="M40.0933 12.7574C38.5297 6.97069 25.4016 10.1669 25.4016 10.1669C25.4016 10.1669 34.3416 1.26027 41.1581 2.46218L48.7686 3.80413C51.2133 4.23519 52.3894 7.26286 52.3894 7.26286C52.9048 8.0262 55.1285 7.71896 54.7619 6.19124C57.63 6.07113 58.6972 6.37651 60.2547 7.15976L58.6895 16.0364L53.1967 15.0679L51.3429 13.1978C48.2667 12.2889 47.2274 12.3846 46.9759 13.971L42.8577 37.3268C42.4573 39.5976 35.6202 38.1259 35.9751 36.1132L40.0933 12.7574Z" fill="white"/>
<path d="M54.125 19.525H58.525V27.225C59.0583 26.6917 59.6667 26.2917 60.35 26.025C61.05 25.7583 61.7833 25.625 62.55 25.625C64.2333 25.625 65.475 26.0667 66.275 26.95C67.0917 27.8167 67.5 29 67.5 30.5V38H63.1V31.075C63.1 29.725 62.4833 29.05 61.25 29.05C60.6833 29.05 60.1667 29.1833 59.7 29.45C59.2333 29.7 58.8417 30.0917 58.525 30.625V38H54.125V19.525ZM76.1617 38.375C74.6784 38.375 73.3784 38.1083 72.2617 37.575C71.1451 37.025 70.2784 36.275 69.6617 35.325C69.0617 34.3583 68.7617 33.25 68.7617 32C68.7617 30.75 69.0617 29.65 69.6617 28.7C70.2784 27.7333 71.1451 26.9833 72.2617 26.45C73.3784 25.9 74.6784 25.625 76.1617 25.625C78.0951 25.625 79.7201 26.0833 81.0367 27C81.8701 26.9833 82.4534 26.8083 82.7867 26.475C83.1201 26.1417 83.2867 25.6167 83.2867 24.9V24.05H86.8367V25.175C86.8367 26.3583 86.5201 27.3833 85.8867 28.25C85.2534 29.1 84.3617 29.6583 83.2117 29.925C83.4451 30.5917 83.5617 31.2833 83.5617 32C83.5617 33.25 83.2534 34.3583 82.6367 35.325C82.0367 36.275 81.1784 37.025 80.0617 37.575C78.9451 38.1083 77.6451 38.375 76.1617 38.375ZM76.1617 34.95C77.0451 34.95 77.7451 34.6917 78.2617 34.175C78.7951 33.6417 79.0617 32.9167 79.0617 32C79.0617 31.0833 78.7951 30.3667 78.2617 29.85C77.7451 29.3167 77.0451 29.05 76.1617 29.05C75.2784 29.05 74.5701 29.3167 74.0367 29.85C73.5201 30.3667 73.2617 31.0833 73.2617 32C73.2617 32.9167 73.5201 33.6417 74.0367 34.175C74.5701 34.6917 75.2784 34.95 76.1617 34.95ZM76.4367 43C75.9034 43 75.4451 42.8083 75.0617 42.425C74.6784 42.0583 74.4867 41.6083 74.4867 41.075C74.4867 40.5417 74.6784 40.0833 75.0617 39.7C75.4451 39.3333 75.9034 39.15 76.4367 39.15C76.9701 39.15 77.4201 39.3333 77.7867 39.7C78.1534 40.0833 78.3367 40.5417 78.3367 41.075C78.3367 41.6083 78.1534 42.0583 77.7867 42.425C77.4201 42.8083 76.9701 43 76.4367 43Z" fill="white"/>
<rect y="20.6372" width="21.1393" height="2.18103" rx="1.09051" fill="white"/>
<rect x="9.24097" y="13.6578" width="11.8981" height="2.18103" rx="1.09051" fill="white"/>
<rect x="9.24097" y="28.0731" width="11.8981" height="2.18103" rx="1.09051" fill="white"/>
<rect y="6.24237" width="21.1393" height="2.18103" rx="1.09051" fill="white"/>
</svg>
