<svg width="67" height="69" viewBox="0 0 67 69" fill="none" xmlns="http://www.w3.org/2000/svg">
<path d="M13.6524 45.8666C20.2608 54.0019 28.2158 60.4072 37.2954 64.9395C40.7523 66.6266 45.3754 68.6283 50.526 68.9714C50.8454 68.9857 51.1508 69 51.4701 69C54.927 69 57.7036 67.7704 59.9666 65.2397C59.9805 65.2254 60.0082 65.1969 60.0221 65.1683C60.8273 64.1674 61.7436 63.2667 62.7016 62.3087C63.3541 61.6654 64.0205 60.9934 64.6591 60.3071C67.6162 57.133 67.6162 53.1011 64.6313 50.0271L56.2875 41.4343C54.8715 39.9188 53.1777 39.1181 51.4007 39.1181C49.6236 39.1181 47.916 39.9188 46.4583 41.42L41.4881 46.5385C41.03 46.2669 40.558 46.0238 40.1137 45.7951C39.5584 45.5091 39.0447 45.2375 38.5865 44.9372C34.0606 41.9776 29.9512 38.1173 26.0223 33.156C24.037 30.5682 22.7042 28.3949 21.7741 26.1788C23.0791 24.9635 24.3008 23.691 25.4809 22.4472C25.8974 22.0039 26.3277 21.5607 26.7581 21.1175C28.2575 19.5734 29.0627 17.7862 29.0627 15.9704C29.0627 14.1546 28.2714 12.3674 26.7581 10.8232L22.6209 6.56258C22.135 6.06216 21.6769 5.57605 21.2049 5.07563C20.2886 4.1034 19.3306 3.10257 18.3866 2.20182C16.9566 0.75777 15.2768 0 13.4997 0C11.7366 0 10.0428 0.75777 8.55733 2.21612L3.36504 7.56341C1.47693 9.50787 0.40793 11.867 0.1858 14.5978C-0.0779794 18.0149 0.532879 21.6465 2.11556 26.0358C4.5451 32.8272 8.21025 39.1324 13.6524 45.8666ZM3.57329 14.8981C3.73988 12.9965 4.44792 11.4094 5.7807 10.0369L10.9452 4.71819C11.7505 3.91753 12.639 3.5029 13.4997 3.5029C14.3466 3.5029 15.2074 3.91753 15.9987 4.74679C16.9289 5.63324 17.8035 6.56258 18.7476 7.54911C19.2196 8.04952 19.7055 8.54994 20.1914 9.06465L24.3286 13.3253C25.1893 14.2118 25.6336 15.1125 25.6336 15.999C25.6336 16.8854 25.1893 17.7862 24.3286 18.6726C23.8982 19.1158 23.4678 19.5734 23.0374 20.0166C21.7463 21.3605 20.5385 22.633 19.2057 23.8483C19.1779 23.8769 19.164 23.8912 19.1363 23.9198C17.984 25.1065 18.1645 26.236 18.4421 27.0939C18.456 27.1368 18.4699 27.1654 18.4838 27.2082C19.5528 29.8533 21.0383 32.3697 23.3568 35.3722C27.5217 40.6622 31.9088 44.7656 36.7401 47.9254C37.3371 48.3257 37.9757 48.6403 38.5727 48.9548C39.128 49.2408 39.6417 49.5124 40.0998 49.8127C40.1553 49.8413 40.197 49.8699 40.2525 49.8985C40.7107 50.1415 41.1549 50.2559 41.5992 50.2559C42.7098 50.2559 43.4318 49.5267 43.6678 49.2837L48.8601 43.9364C49.6653 43.1071 50.5399 42.6639 51.4007 42.6639C52.4558 42.6639 53.3166 43.3359 53.858 43.9364L62.2295 52.5435C63.8955 54.2592 63.8816 56.1179 62.1879 57.9337C61.6048 58.5771 60.9939 59.1919 60.3414 59.8353C59.3696 60.8075 58.3561 61.8083 57.4398 62.9378C55.8433 64.7107 53.9413 65.54 51.484 65.54C51.248 65.54 50.9981 65.5257 50.7621 65.5114C46.2084 65.2112 41.974 63.3811 38.7948 61.8226C30.1595 57.5191 22.5793 51.414 16.2902 43.6647C11.1118 37.2451 7.62716 31.2688 5.32256 24.8634C3.8926 20.9316 3.35116 17.7719 3.57329 14.8981Z" fill="white"/>
</svg>
