<svg width="34" height="35" viewBox="0 -12 30 45" fill="none" xmlns="http://www.w3.org/2000/svg">
<path d="M27.9203 8.71114C27.8003 8.24422 27.5566 7.7467 27.3763 7.31111C25.2191 1.92888 20.5056 0 16.6997 0C11.6048 0 5.99332 3.54676 5.24414 10.8575V12.3511C5.24414 12.4134 5.26483 12.9733 5.29423 13.2534C5.7142 16.7375 8.36234 20.4404 10.3401 23.9245C12.4678 27.6573 14.6757 31.3294 16.8631 34.9999C18.2119 32.6046 19.5558 30.1778 20.8739 27.8445C21.2331 27.1597 21.6501 26.4754 22.0098 25.8218C22.2494 25.3866 22.7074 24.9514 22.9166 24.5465C25.0442 20.5023 28.469 16.4268 28.469 12.4133V10.7645C28.4691 10.3294 27.9496 8.80497 27.9203 8.71114ZM16.793 16.2091C15.2953 16.2091 13.656 15.4316 12.8469 13.2846C12.7263 12.9428 12.7361 12.2579 12.7361 12.1952V11.2307C12.7361 8.49363 14.9747 7.24894 16.9221 7.24894C19.3197 7.24894 21.174 9.24032 21.174 11.7294C21.174 14.2184 19.1905 16.2091 16.793 16.2091Z" fill="#CF3D3D"/>
</svg>
