<svg width="51" height="37" viewBox="0 0 51 37" fill="none" xmlns="http://www.w3.org/2000/svg">
<rect y="3.73654" width="50.0849" height="32.3834" rx="4" fill="#C4C4C4"/>
<path d="M14.2215 18.9625C16.4824 18.9625 18.3153 17.0876 18.3153 14.7747C18.3153 12.4618 16.4824 10.5869 14.2215 10.5869C11.9605 10.5869 10.1277 12.4618 10.1277 14.7747C10.1277 17.0876 11.9605 18.9625 14.2215 18.9625Z" fill="black"/>
<path d="M14.2215 21.0565C10.1235 21.0565 6.80151 24.4549 6.80151 28.647H21.6415C21.6415 24.4549 18.3194 21.0565 14.2215 21.0565Z" fill="black"/>
<line x1="32.1536" y1="11.9552" x2="43.9019" y2="11.9552" stroke="black"/>
<line x1="31.938" y1="20.8436" x2="43.6863" y2="20.8436" stroke="black"/>
<line x1="32.1536" y1="28.1469" x2="43.9019" y2="28.1469" stroke="black"/>
<rect x="22.26" width="6.18332" height="5.60483" fill="#C4C4C4"/>
</svg>
