<svg width="45" height="40" viewBox="-1.5 -5 40 40" fill="none" xmlns="http://www.w3.org/2000/svg">
<path d="M29.8547 7.9686C28.4239 5.51738 26.4831 3.57658 24.0318 2.14585C21.58 0.715184 18.9036 0 16.0005 0C13.0976 0 10.4204 0.715184 7.96912 2.14585C5.51767 3.57636 3.57687 5.51716 2.14606 7.9686C0.715185 10.4202 0 13.0974 0 16C0 18.9028 0.715403 21.5796 2.14585 24.0313C3.57658 26.4825 5.51738 28.4233 7.96882 29.8542C10.4204 31.2848 13.0974 32.0001 16.0002 32.0001C18.903 32.0001 21.5802 31.2848 24.0317 29.8542C26.483 28.4239 28.4237 26.4825 29.8544 24.0313C31.2848 21.5798 31.9999 18.9027 31.9999 16C32 13.0971 31.2848 10.4198 29.8547 7.9686ZM18.6673 26.0001C18.6673 26.1943 18.6044 26.3542 18.4796 26.479C18.3552 26.6038 18.1954 26.6663 18.0011 26.6663H14.0006C13.8063 26.6663 13.6464 26.6038 13.5214 26.479C13.3964 26.3541 13.3339 26.1943 13.3339 26.0001V21.9996C13.3339 21.8054 13.3963 21.6455 13.5214 21.5207C13.6464 21.3961 13.8063 21.3337 14.0006 21.3337H18.0011C18.1954 21.3337 18.3552 21.3961 18.4796 21.5207C18.6044 21.6455 18.6673 21.8054 18.6673 21.9996V26.0001ZM23.7401 13.6874C23.5663 14.2013 23.372 14.6217 23.1568 14.9479C22.9416 15.2743 22.6323 15.6077 22.2294 15.9479C21.8273 16.2881 21.5076 16.5313 21.2709 16.6774C21.0352 16.823 20.6946 17.0213 20.2506 17.271C19.7922 17.5347 19.414 17.8786 19.1156 18.3024C18.8169 18.7259 18.6676 19.0695 18.6676 19.3332C18.6676 19.528 18.6047 19.6877 18.4798 19.8127C18.3552 19.9375 18.1954 19.9999 18.0011 19.9999H14.0009C13.8065 19.9999 13.6467 19.9375 13.5217 19.8127C13.3965 19.6877 13.3343 19.528 13.3343 19.3332V18.5831C13.3343 17.6526 13.6986 16.7807 14.4279 15.9684C15.1572 15.1558 15.9592 14.5551 16.8344 14.1662C17.5006 13.8608 17.973 13.5482 18.2507 13.2288C18.5289 12.9094 18.6678 12.4853 18.6678 11.9578C18.6678 11.4994 18.4071 11.0897 17.8862 10.7284C17.3652 10.3674 16.7719 10.1868 16.105 10.1868C15.3826 10.1868 14.7856 10.3536 14.3133 10.687C13.8548 11.0202 13.2577 11.6592 12.5215 12.6035C12.3965 12.7703 12.2229 12.8538 12.0006 12.8538C11.8339 12.8538 11.7019 12.8122 11.6048 12.7291L8.85498 10.6457C8.53559 10.3956 8.48006 10.1041 8.68817 9.77069C10.4662 6.81231 13.0425 5.33313 16.4174 5.33313C17.626 5.33313 18.8067 5.61793 19.9594 6.18747C21.1121 6.75671 22.074 7.56238 22.8451 8.60418C23.6152 9.64561 24.0013 10.7778 24.0013 12C24.0003 12.6111 23.9132 13.1733 23.7401 13.6874Z" fill="#03DAC6"/>
</svg>
