<svg width="220" height="220" viewBox="0 0 220 220" fill="none" xmlns="http://www.w3.org/2000/svg">
<path d="M55 20.625H79.0625C82.7092 20.625 86.2066 19.1763 88.7852 16.5977C91.3638 14.0191 92.8125 10.5217 92.8125 6.875H85.9375C85.9375 8.69836 85.2132 10.447 83.9239 11.7364C82.6345 13.0257 80.8859 13.75 79.0625 13.75H55C51.3533 13.75 47.8559 15.1987 45.2773 17.7773C42.6987 20.3559 41.25 23.8533 41.25 27.5H48.125C48.125 25.6766 48.8493 23.928 50.1386 22.6386C51.428 21.3493 53.1766 20.625 55 20.625Z" fill="black"/>
<path d="M99.6875 27.5C99.6875 25.6766 100.412 23.928 101.701 22.6386C102.99 21.3493 104.739 20.625 106.562 20.625H137.5C141.147 20.625 144.644 19.1763 147.223 16.5977C149.801 14.0191 151.25 10.5217 151.25 6.875H144.375C144.375 8.69836 143.651 10.447 142.361 11.7364C141.072 13.0257 139.323 13.75 137.5 13.75H106.562C102.916 13.75 99.4184 15.1987 96.8398 17.7773C94.2612 20.3559 92.8125 23.8533 92.8125 27.5H99.6875Z" fill="black"/>
<path d="M51.7997 41.25H37.5753L37.0837 48.125H52.2912L51.7997 41.25Z" fill="black"/>
<path d="M52.7828 55H36.5922L36.1041 61.875H53.2709L52.7828 55Z" fill="black"/>
<path d="M96.4872 41.25H82.2628L81.7712 48.125H96.9787L96.4872 41.25Z" fill="black"/>
<path d="M98.45 68.75H80.3L79.3169 82.5H99.4331L98.45 68.75Z" fill="black"/>
<path d="M92.8125 178.75H75.625V206.25H92.8125V178.75Z" fill="black"/>
<path d="M68.75 178.75H51.5625V206.25H68.75V178.75Z" fill="black"/>
<path d="M144.375 89.375H20.625V96.25H144.375V89.375Z" fill="black"/>
<path d="M99.6875 165H44.6875V171.875H99.6875V165Z" fill="black"/>
<path d="M53.7625 68.75H35.6125L34.6294 82.5H54.7456L53.7625 68.75Z" fill="black"/>
<path d="M97.4703 55H81.2797L80.7916 61.875H97.9584L97.4703 55Z" fill="black"/>
<path d="M144.375 144.375V206.25H171.875V144.375H144.375ZM165 171.875H151.25V165H165V171.875ZM165 158.125H151.25V151.25H165V158.125Z" fill="black"/>
<path d="M27.5 206.25H44.6875V178.75H41.25C40.3383 178.75 39.464 178.388 38.8193 177.743C38.1747 177.099 37.8125 176.224 37.8125 175.312V161.562C37.8125 160.651 38.1747 159.776 38.8193 159.132C39.464 158.487 40.3383 158.125 41.25 158.125H103.125C104.037 158.125 104.911 158.487 105.556 159.132C106.2 159.776 106.562 160.651 106.562 161.562V175.312C106.562 176.224 106.2 177.099 105.556 177.743C104.911 178.388 104.037 178.75 103.125 178.75H99.6875V206.25H137.5V103.125H27.5V206.25ZM120.312 113.438H127.188V120.312H120.312V113.438ZM120.312 127.188H127.188V134.062H120.312V127.188ZM106.562 113.438H113.438V120.312H106.562V113.438ZM106.562 127.188H113.438V134.062H106.562V127.188ZM85.9375 113.438H92.8125V120.312H85.9375V113.438ZM85.9375 127.188H92.8125V134.062H85.9375V127.188ZM72.1875 113.438H79.0625V120.312H72.1875V113.438ZM72.1875 127.188H79.0625V134.062H72.1875V127.188ZM51.5625 113.438H58.4375V120.312H51.5625V113.438ZM51.5625 127.188H58.4375V134.062H51.5625V127.188ZM37.8125 113.438H44.6875V120.312H37.8125V113.438ZM37.8125 127.188H44.6875V134.062H37.8125V127.188Z" fill="black"/>
<path d="M178.75 158.125H199.375V206.25H206.25V154.688C206.25 153.776 205.888 152.901 205.243 152.257C204.599 151.612 203.724 151.25 202.812 151.25H178.75V158.125Z" fill="black"/>
<path d="M178.75 171.875H185.625V206.25H192.5V168.438C192.5 167.526 192.138 166.651 191.493 166.007C190.849 165.362 189.974 165 189.062 165H178.75V171.875Z" fill="black"/>
</svg>

