<svg width="220" height="220" viewBox="0 0 220 220" fill="none" xmlns="http://www.w3.org/2000/svg">
<path d="M45.3319 48.6174C48.0472 49.7072 50.966 50.2634 53.8919 50.2634C61.5016 50.2634 68.7515 46.3866 72.9914 40.0694C77.2919 33.6623 78.0678 25.2848 75.0177 18.195C72.0458 11.2886 65.6965 6.14669 58.3124 4.70808C50.761 3.23651 42.8135 5.70904 37.4394 11.2131C32.0619 16.721 29.7815 24.7397 31.4427 32.2566C33.0653 39.5964 38.3577 45.8176 45.3319 48.6174Z" fill="black"/>
<path d="M207.45 201.383C207.225 201.121 185.452 175.354 184.242 135.345C184.214 134.461 184.118 131.347 183.193 126.856C177.969 101.497 170.494 63.4096 169.331 57.1736C167.099 45.2108 157.237 44.4569 149.627 46.1946C142.017 47.9323 136.645 51.9915 133.563 62.1678C125.919 87.4106 98.1559 96.381 96.0112 98.1674C95.9256 96.9529 95.3404 71.3255 72.7168 58.1908C64.5677 53.4597 46.6255 50.5386 33.4888 58.1162C7.82703 72.9189 9.946 109.207 10.119 111.918C10.2437 113.871 10.5007 115.817 10.7148 117.761C11.1171 121.322 14.3345 124.046 17.914 123.831C21.4921 123.616 24.356 120.541 24.3244 116.959L24.322 116.631C24.3082 115.006 24.2427 113.374 24.3029 111.749C24.3904 109.354 24.5356 106.978 24.7349 104.59C25.0602 102.149 25.3197 99.6462 25.9781 97.2663C26.6274 94.4116 29.0191 88.2845 31.0526 84.8635C31.4105 84.2615 32.0641 84.111 31.9116 85.1755C31.7592 86.24 30.5958 212.22 30.5958 212.22C30.7936 216.126 33.1381 219.466 40.7965 219.466C48.4549 219.466 50.5046 213.904 50.5046 211.716C50.5046 209.528 50.4621 158.556 50.4621 156.145C50.4621 153.734 55.2371 152.803 55.2371 156.218C55.2371 159.634 55.6604 211.73 55.6604 211.73C55.8548 215.636 58.938 219.517 65.6929 219.517C72.4468 219.517 74.6986 215.61 74.6986 211.186C74.6986 203.819 74.8042 87.2376 74.4875 86.0513C74.1597 84.8239 74.9691 84.7054 75.3269 85.3404L75.9777 86.3929L76.5654 87.51C78.1927 90.552 79.3117 93.9099 80.0756 97.2668C80.7345 99.6471 80.9915 102.149 81.3212 104.589C81.5185 106.978 81.6647 109.353 81.7527 111.748C81.8129 113.372 81.7397 117.32 81.7512 117.484C78.2204 120.06 78.3546 125.976 79.4311 127.508C80.5075 129.039 82.6633 129.468 84.2395 128.456C84.9481 128 85.4818 127.294 85.7226 126.486C85.853 126.048 85.852 125.619 85.8783 125.167C85.9132 124.576 86.0494 123.991 86.2816 123.446C89.0475 124.423 92.1803 123.492 93.9672 121.167C95.3494 122.1 96.2596 123.683 96.2596 125.473V214.602C96.2596 216.532 97.8712 218.143 99.8024 218.143C101.734 218.143 103.344 216.532 103.344 214.602V125.474C103.344 120.358 100.209 115.985 95.7393 114.122C95.2481 113.917 95.3112 112.875 95.8411 112.969C96.4502 113.079 99.498 114.384 101.996 114.056C120.076 111.686 131.869 98.0055 138.719 91.3361C139.49 90.5855 140.857 88.8607 141.527 91.7107C141.97 93.5969 144.796 109.758 147.086 120.496C147.647 123.125 147.289 124.439 145.03 126.271C133.192 135.874 125.507 152.611 119.727 175.238C115.253 192.751 114.247 207.677 114.207 208.305C113.815 214.357 118.401 219.579 124.454 219.976C124.698 219.992 124.941 220 125.183 220C130.921 220 135.752 215.541 136.138 209.734C137.032 196.269 144.95 159.613 160.018 143.17C162.588 140.366 163.647 143.36 163.798 144.915C167.876 187.138 190.465 213.876 191.513 215.092C193.592 217.509 196.529 218.749 199.486 218.749C201.912 218.749 204.353 217.913 206.336 216.206C210.737 212.42 211.235 205.784 207.45 201.383Z" fill="black"/>
<path d="M123.529 44.3275C126.244 45.4174 129.163 45.9735 132.089 45.9735C139.699 45.9735 146.949 42.0968 151.189 35.7795C155.489 29.3724 156.265 20.9949 153.215 13.9051C150.243 6.99874 143.894 1.85683 136.51 0.418218C128.958 -1.05336 121.011 1.41918 115.636 6.92325C110.259 12.4311 107.978 20.4498 109.639 27.9668C111.262 35.3065 116.555 41.5277 123.529 44.3275Z" fill="black"/>
</svg>
