<svg width="28" height="28" viewBox="0 0 28 28" fill="none" xmlns="http://www.w3.org/2000/svg">
<path d="M14 0C6.26845 0 0 6.26795 0 14C0 21.7316 6.26845 28 14 28C21.732 28 28 21.7316 28 14C28 6.26773 21.732 0 14 0ZM20.3522 19.121C20.3522 19.7998 19.8 20.352 19.1213 20.352H8.87873C8.19995 20.352 7.64777 19.7998 7.64777 19.121V8.87873C7.64777 8.19995 8.19995 7.64755 8.87873 7.64755H19.1213C19.8 7.64755 20.3522 8.19995 20.3522 8.87873V19.121Z" fill="black"/>
<path d="M15.0293 11.7083L14.0022 10.6814L14.0018 10.6818L14.0013 10.6814L12.9742 11.7083L12.9747 11.7088L10.6667 14.0166L11.6936 15.0435L13.2605 13.4771V17.3181H14.713V13.4468L16.3099 15.0435L17.3368 14.0166L15.0289 11.7088L15.0293 11.7083Z" fill="black"/>
</svg>
