<svg width="26" height="26" viewBox="0 0 26 26" fill="none" xmlns="http://www.w3.org/2000/svg">
<path d="M8.47903 11.7452C7.14087 11.7452 6.05225 10.6566 6.05225 9.31843C6.05225 7.98047 7.14087 6.89185 8.47903 6.89185C9.817 6.89185 10.9056 7.98047 10.9056 9.31843C10.9056 10.6566 9.817 11.7452 8.47903 11.7452Z" fill="black"/>
<path d="M15.3343 7.75262C13.9961 7.75262 12.9075 6.6638 12.9075 5.32584C12.9075 3.98767 13.9961 2.89905 15.3343 2.89905C16.6722 2.89905 17.7609 3.98767 17.7609 5.32584C17.7609 6.6638 16.6722 7.75262 15.3343 7.75262Z" fill="black"/>
<path d="M4.06009 5.25983C2.72212 5.25983 1.6333 4.1712 1.6333 2.83304C1.6333 1.49487 2.72212 0.40625 4.06009 0.40625C5.39825 0.40625 6.48688 1.49487 6.48688 2.83304C6.48688 4.1712 5.39825 5.25983 4.06009 5.25983Z" fill="black"/>
<path d="M20.5968 16.661C20.5968 16.6096 20.5993 16.5588 20.6029 16.5082L19.5212 16.0879C18.8656 15.2968 16.7233 14.3877 13.4479 15.4458C13.2033 15.5249 12.9449 15.5499 12.6892 15.5226C11.5886 15.4049 9.60797 15.0136 8.08215 14.8162C7.30179 14.7154 6.815 14.9854 6.54642 16.1926L6.54681 16.1928C6.54086 16.2329 6.53729 16.2734 6.53729 16.3144C6.53729 16.8695 7.1068 17.3384 7.78104 17.3384C7.81615 17.3384 7.85126 17.341 7.88597 17.3461L11.9691 17.9553C12.4013 18.0196 12.7046 18.4611 12.6467 18.9414C12.5936 19.3819 12.2545 19.7021 11.8652 19.7021C11.8302 19.7021 11.7947 19.6995 11.7592 19.6942L7.7245 19.0923C6.19392 19.0628 4.95831 17.828 4.95831 16.3144C4.95831 16.053 4.996 15.8001 5.06483 15.5601L2.13182 14.3032C1.65813 14.1021 1.11818 14.1491 0.68753 14.4294C0.25708 14.7095 0 15.1808 0 15.69V16.6465C0 17.4064 0.293777 18.1267 0.827179 18.6746L6.33913 24.3357C6.34071 24.3375 6.3423 24.3391 6.34389 24.3407C7.18872 25.1936 8.40608 25.5945 9.60023 25.4126L17.074 24.2752C17.7149 24.2607 18.341 24.0326 18.8851 23.621L20.5968 24.3785V16.661Z" fill="black"/>
<path d="M22.712 25.6419C22.3867 25.6419 22.1221 25.3761 22.1221 25.0494V16.661C22.1221 16.3343 22.3867 16.0685 22.712 16.0685H25.9999V25.6419H22.712Z" fill="black"/>
</svg>
