<svg width="24" height="33" viewBox="0 0 24 33" fill="none" xmlns="http://www.w3.org/2000/svg">
<path d="M23.1579 8.21336C23.0369 7.77312 22.7911 7.30403 22.6093 6.89333C20.4337 1.81866 15.6801 0 11.8418 0C6.70355 0 1.04437 3.34409 0.288818 10.237V11.6453C0.288818 11.7041 0.309687 12.232 0.339331 12.4961C0.762874 15.7811 3.43354 19.2723 5.4281 22.5573C7.57396 26.0769 9.80061 29.5391 12.0066 32.9999C13.3669 30.7415 14.7223 28.4533 16.0515 26.2534C16.4138 25.6077 16.8344 24.9625 17.197 24.3462C17.4388 23.9359 17.9006 23.5256 18.1116 23.1438C20.2573 19.3307 23.7112 15.4882 23.7112 11.704V10.1494C23.7113 9.73917 23.1874 8.30183 23.1579 8.21336ZM11.9359 15.2829C10.4255 15.2829 8.77226 14.5498 7.95624 12.5255C7.83466 12.2032 7.84446 11.5574 7.84446 11.4983V10.589C7.84446 8.00828 10.1021 6.83471 12.0661 6.83471C14.4841 6.83471 16.3541 8.7123 16.3541 11.0591C16.3541 13.4059 14.3538 15.2829 11.9359 15.2829Z" fill="black"/>
</svg>
